<?xml version="1.0" encoding="utf-8"?>
<svg xmlns="http://www.w3.org/2000/svg" width="300" height="120" viewBox="0 0 300 120">
  <defs>
    <style>
      .cls-1 {
        fill: #fff;
      }
    </style>
  </defs>
  <g id="Edge.LOCKUP">
    <g id="Edge.FullColor.Lockup">
      <g id="Edge.Mark">
        <path id="teal" class="cls-1" d="M135.319,61.2H88.584a1.2,1.2,0,0,0-1.16.912,8.4,8.4,0,1,1,0-4.234,1.211,1.211,0,0,0,1.165.922h46.733a1.19,1.19,0,0,0,1.188-1.261V57.52a1.19,1.19,0,0,0-1.188-1.12H125.8a11.4,11.4,0,0,1-6.994-2.9l-9.309-9.309A8.9,8.9,0,0,0,104.2,42h-1.519a1.2,1.2,0,0,0-1.16.913,8.4,8.4,0,1,1,0-4.235,1.212,1.212,0,0,0,1.165.922H104.2a11.4,11.4,0,0,1,6.994,2.9l9.309,9.309A8.9,8.9,0,0,0,125.8,54h8.841a1.2,1.2,0,0,0,1.177-1.453,36,36,0,1,0,0,14.911A1.206,1.206,0,0,0,134.637,66H125.8a8.9,8.9,0,0,0-5.3,2.194L111.19,77.5a11.4,11.4,0,0,1-6.994,2.9h-1.519a1.2,1.2,0,0,0-1.16.912,8.4,8.4,0,1,1,0-4.234,1.212,1.212,0,0,0,1.165.922H104.2a8.9,8.9,0,0,0,5.3-2.194L118.8,66.5a11.4,11.4,0,0,1,6.994-2.9h9.523a1.189,1.189,0,0,0,1.187-1.121v-.021A1.189,1.189,0,0,0,135.319,61.2Z"/>
        <path id="tealAccent" class="cls-1" d="M93.4,73.8A5.4,5.4,0,1,1,88,79.2,5.4,5.4,0,0,1,93.4,73.8Zm0-27.6A5.4,5.4,0,1,0,88,40.8,5.4,5.4,0,0,0,93.4,46.2ZM73.9,60a5.4,5.4,0,1,0,5.4-5.4A5.4,5.4,0,0,0,73.9,60Z"/>
      </g>
      <g id="Edge.Logotype">
        <g>
          <path class="cls-1" d="M166.121,85.378H151.076V58.389h15.045v2.787H154.214v8.695H165.4V72.64H154.214v9.932h11.907Z"/>
          <path class="cls-1" d="M184.655,82.664h-.166a7.2,7.2,0,0,1-6.35,3.083,7.511,7.511,0,0,1-6.175-2.714q-2.207-2.713-2.206-7.716t2.215-7.772a7.455,7.455,0,0,1,6.166-2.769,7.357,7.357,0,0,1,6.313,2.991h.24l-.129-1.459-.074-1.421V56.654h3.065V85.378h-2.493Zm-6.128.517q3.137,0,4.55-1.708t1.412-5.51v-.646q0-4.3-1.431-6.138a5.429,5.429,0,0,0-4.568-1.837,4.69,4.69,0,0,0-4.126,2.095,10.417,10.417,0,0,0-1.431,5.917,9.979,9.979,0,0,0,1.422,5.852A4.811,4.811,0,0,0,178.527,83.181Z"/>
          <path class="cls-1" d="M209.854,65.145v1.939l-3.747.443a6.579,6.579,0,0,1,1.329,4.043,5.981,5.981,0,0,1-2.031,4.744,8.194,8.194,0,0,1-5.575,1.772,9.23,9.23,0,0,1-1.7-.148,3.018,3.018,0,0,0-1.957,2.6,1.324,1.324,0,0,0,.683,1.228,4.985,4.985,0,0,0,2.345.4h3.581a8.023,8.023,0,0,1,5.049,1.384,4.811,4.811,0,0,1,1.763,4.025A5.743,5.743,0,0,1,206.9,92.7q-2.7,1.762-7.865,1.763a10.736,10.736,0,0,1-6.119-1.477,4.767,4.767,0,0,1-2.151-4.172,4.683,4.683,0,0,1,1.182-3.193,6.022,6.022,0,0,1,3.323-1.828,3.2,3.2,0,0,1-1.3-1.089,2.879,2.879,0,0,1-.526-1.717,3.251,3.251,0,0,1,.591-1.938A6.2,6.2,0,0,1,195.9,77.44a5.465,5.465,0,0,1-2.557-2.2,6.458,6.458,0,0,1-.987-3.544,6.545,6.545,0,0,1,1.994-5.123,8.138,8.138,0,0,1,5.648-1.8,10.278,10.278,0,0,1,2.862.369ZM193.72,88.775a2.746,2.746,0,0,0,1.384,2.492,7.653,7.653,0,0,0,3.969.849,11.079,11.079,0,0,0,5.714-1.154,3.532,3.532,0,0,0,1.855-3.129,2.478,2.478,0,0,0-1.015-2.28,7.893,7.893,0,0,0-3.821-.637h-3.674a4.841,4.841,0,0,0-3.249,1A3.564,3.564,0,0,0,193.72,88.775Zm1.661-17.15a4.119,4.119,0,0,0,1.2,3.212,4.788,4.788,0,0,0,3.342,1.089q4.485,0,4.485-4.356,0-4.56-4.541-4.56a4.5,4.5,0,0,0-3.323,1.163A4.684,4.684,0,0,0,195.381,71.625Z"/>
          <path class="cls-1" d="M221.8,85.747a9.3,9.3,0,0,1-7.079-2.732q-2.593-2.731-2.594-7.587a11.732,11.732,0,0,1,2.409-7.772,8,8,0,0,1,6.47-2.88,7.627,7.627,0,0,1,6.018,2.5,9.586,9.586,0,0,1,2.216,6.6v1.938H215.3a8.024,8.024,0,0,0,1.8,5.409,6.223,6.223,0,0,0,4.809,1.846,16.291,16.291,0,0,0,6.461-1.366v2.732a16.169,16.169,0,0,1-3.074,1.006A17.2,17.2,0,0,1,221.8,85.747Zm-.83-18.4a5,5,0,0,0-3.886,1.588,7.316,7.316,0,0,0-1.708,4.393h10.578a6.739,6.739,0,0,0-1.292-4.439A4.548,4.548,0,0,0,220.969,67.342Z"/>
          <g>
            <polygon class="cls-1" points="230.578 60.832 230.009 60.832 230.009 57.99 229.044 57.99 229.044 57.5 231.553 57.5 231.553 57.99 230.578 57.99 230.578 60.832"/>
            <polygon class="cls-1" points="233.352 60.832 232.422 58.249 232.385 58.249 232.413 58.845 232.413 60.832 231.862 60.832 231.862 57.5 232.727 57.5 233.633 60.084 234.572 57.5 235.404 57.5 235.404 60.832 234.816 60.832 234.816 58.891 234.844 58.258 234.807 58.258 233.832 60.832 233.352 60.832"/>
          </g>
        </g>
        <path id="CriblLogStream.LOGO" class="cls-1" d="M157.6,35.811a7.248,7.248,0,0,1,2.553.394,6.877,6.877,0,0,1,1.938,1.128l-1.306,1.554a4.624,4.624,0,0,0-1.436-.831,4.873,4.873,0,0,0-1.63-.27,3.718,3.718,0,0,0-3.557,2.386,8.335,8.335,0,0,0-.567,3.368,8.572,8.572,0,0,0,.54,3.325,3.81,3.81,0,0,0,1.479,1.835,3.97,3.97,0,0,0,2.105.572,4.426,4.426,0,0,0,1.986-.394,7.422,7.422,0,0,0,1.393-.89l1.209,1.543a6.456,6.456,0,0,1-4.675,1.771,6.541,6.541,0,0,1-3.395-.891,6.168,6.168,0,0,1-2.374-2.618A9.387,9.387,0,0,1,151,43.54a9.076,9.076,0,0,1,.9-4.226,6.246,6.246,0,0,1,5.711-3.5Zm15.823,3.881a4.686,4.686,0,0,0-.912-.081,3.8,3.8,0,0,0-2.435.75,5.636,5.636,0,0,0-1.581,2.186l-.443-2.645h-3.519v1.717h1.673v7.955h-1.673V51.3h6.391V49.574h-2.3V45.343a6.38,6.38,0,0,1,1.42-2.634,2.88,2.88,0,0,1,2.045-.919V44.1h1.728l.41-4.2A7.32,7.32,0,0,0,173.426,39.692Zm8.966.21v9.629h3.667V51.3h-9.5V49.531h3.412V41.672h-3.3V39.9Zm-1.684-5.581a1.562,1.562,0,0,1,1.149.432,1.454,1.454,0,0,1,.438,1.079,1.491,1.491,0,0,1-.438,1.091,1.695,1.695,0,0,1-2.283,0,1.483,1.483,0,0,1-.442-1.091,1.446,1.446,0,0,1,.442-1.079A1.556,1.556,0,0,1,180.708,34.321Zm10.266,6.938a4.49,4.49,0,0,1,1.387-1.22,3.52,3.52,0,0,1,1.744-.443,3.807,3.807,0,0,1,2.434.74,4.253,4.253,0,0,1,1.371,2.083,10.252,10.252,0,0,1,.437,3.158,8.667,8.667,0,0,1-.518,3.1,4.76,4.76,0,0,1-1.528,2.137,3.951,3.951,0,0,1-2.488.778,3.579,3.579,0,0,1-3-1.415l-.13,1.123h-2.126V35.321l2.418-.27Zm2.234,8.485a2.166,2.166,0,0,0,1.906-1,5.771,5.771,0,0,0,.675-3.152,8.558,8.558,0,0,0-.271-2.37,2.593,2.593,0,0,0-.793-1.333,1.975,1.975,0,0,0-1.279-.421,2.233,2.233,0,0,0-1.425.486,4.813,4.813,0,0,0-1.047,1.144v5.333a3.091,3.091,0,0,0,.966.966A2.359,2.359,0,0,0,193.208,49.744Zm11.243-14.693V47.919a1.258,1.258,0,0,0,.48,1.118,2.168,2.168,0,0,0,1.247.329,3.949,3.949,0,0,0,.939-.108,7.1,7.1,0,0,0,.864-.27l.615,1.684a6.207,6.207,0,0,1-1.247.453,6.644,6.644,0,0,1-1.689.2,3.328,3.328,0,0,1-3.627-3.617V36.833h-2.875V35.051Zm3.271.95-.246-.447H207.3V36h-.2V34.859h.384c.237,0,.421.084.421.339a.32.32,0,0,1-.229.327l.272.476Zm-.419-.607h.161c.157,0,.241-.067.241-.2s-.084-.176-.241-.176H207.3Zm.19,1.123a1.1,1.1,0,1,1,1.1-1.1A1.1,1.1,0,0,1,207.493,36.517Zm0-2.024a.92.92,0,1,0,.919.92A.921.921,0,0,0,207.493,34.493Z"/>
      </g>
    </g>
  </g>
</svg>
